<svg width="1051" height="856" viewBox="0 0 1051 856" fill="none" xmlns="http://www.w3.org/2000/svg">
<path d="M3.92638 854.111C1.30879 854.111 0 853.098 0 851.072C0 849.046 1.30879 848.032 3.92638 848.032C7.73378 848.032 10.4704 846.9 12.1361 844.636C13.9208 842.252 14.9322 838.378 15.1701 833.015C15.646 816.806 15.884 803.993 15.884 794.577C15.884 786.115 15.646 773.303 15.1701 756.14C14.8132 746.128 11.0653 741.123 3.92638 741.123C1.30879 741.123 0 740.109 0 738.083C0 736.057 1.30879 735.044 3.92638 735.044C4.52129 735.044 7.49582 735.163 12.85 735.402C18.3231 735.521 23.3798 735.58 28.0201 735.58C32.6604 735.58 37.6576 735.521 43.0117 735.402C48.3659 735.163 51.3404 735.044 51.9353 735.044C54.5529 735.044 55.8617 736.057 55.8617 738.083C55.8617 740.109 54.5529 741.123 51.9353 741.123C48.1279 741.123 45.3319 742.314 43.5471 744.698C41.8814 746.963 40.9296 750.777 40.6916 756.14C40.2157 772.349 39.9777 785.162 39.9777 794.577C39.9777 803.04 40.2157 815.852 40.6916 833.015C40.9296 838.378 41.8814 842.252 43.5471 844.636C45.3319 846.9 48.1279 848.032 51.9353 848.032C54.5529 848.032 55.8617 849.046 55.8617 851.072C55.8617 853.098 54.5529 854.111 51.9353 854.111C51.3404 854.111 48.3659 853.992 43.0117 853.753C37.6576 853.634 32.6604 853.575 28.0201 853.575C23.3798 853.575 18.3231 853.634 12.85 853.753C7.49582 853.992 4.52129 854.111 3.92638 854.111Z" fill="black"/>
<path d="M65.9147 854.111C63.2971 854.111 61.9883 853.098 61.9883 851.072C61.9883 849.046 63.2971 848.032 65.9147 848.032C69.7221 848.032 72.5182 846.9 74.3029 844.636C76.0876 842.252 77.0394 838.378 77.1584 833.015C77.6343 816.806 77.8723 803.993 77.8723 794.577C77.8723 786.115 77.6343 773.303 77.1584 756.14C76.8015 746.128 73.0536 741.123 65.9147 741.123C63.2971 741.123 61.9883 740.109 61.9883 738.083C61.9883 736.057 63.2971 735.044 65.9147 735.044C66.5096 735.044 68.4728 735.163 71.8043 735.402C75.2547 735.521 78.4077 735.58 81.2633 735.58C87.2123 735.58 93.1614 735.402 99.1105 735.044C120.408 764.841 140.397 790.525 159.077 812.098C159.196 808.046 159.255 802.205 159.255 794.577C159.255 786.115 159.018 773.303 158.542 756.14C158.423 750.777 157.471 746.963 155.686 744.698C153.901 742.314 151.105 741.123 147.298 741.123C144.68 741.123 143.371 740.109 143.371 738.083C143.371 736.057 144.68 735.044 147.298 735.044C153.366 735.402 158.958 735.58 164.074 735.58C168.833 735.58 174.128 735.402 179.958 735.044C182.576 735.044 183.885 736.057 183.885 738.083C183.885 740.109 182.576 741.123 179.958 741.123C176.151 741.123 173.355 742.314 171.57 744.698C169.785 746.963 168.833 750.777 168.715 756.14C168.239 772.349 168.001 785.162 168.001 794.577C168.001 817.104 168.417 836.769 169.25 853.575H158.006C129.808 814.482 106.071 783.493 86.7959 760.609C86.6769 767.88 86.6174 779.202 86.6174 794.577C86.6174 803.04 86.8554 815.852 87.3313 833.015C87.4503 838.378 88.4021 842.252 90.1869 844.636C91.9716 846.9 94.7676 848.032 98.575 848.032C101.193 848.032 102.501 849.046 102.501 851.072C102.501 853.098 101.193 854.111 98.575 854.111C92.507 853.753 86.9149 853.575 81.7987 853.575C77.1584 853.575 71.8638 853.753 65.9147 854.111Z" fill="black"/>
<path d="M192.121 854.111C189.503 854.111 188.194 853.098 188.194 851.072C188.194 849.046 189.503 848.032 192.121 848.032C195.928 848.032 198.665 846.9 200.331 844.636C202.115 842.252 203.127 838.378 203.365 833.015C203.84 816.806 204.078 803.993 204.078 794.577C204.078 786.115 203.84 773.303 203.365 756.14C203.008 746.128 199.26 741.123 192.121 741.123C189.503 741.123 188.194 740.109 188.194 738.083C188.194 736.057 189.503 735.044 192.121 735.044C192.716 735.044 195.69 735.163 201.044 735.402C206.518 735.521 211.574 735.58 216.215 735.58C220.855 735.58 226.982 735.461 234.597 735.223C242.212 734.984 246.317 734.865 246.912 734.865C265.711 734.865 279.929 740.348 289.566 751.313C299.323 762.159 304.201 776.58 304.201 794.577C304.201 812.575 299.323 827.056 289.566 838.021C279.929 848.986 265.711 854.468 246.912 854.468C246.317 854.468 242.212 854.29 234.597 853.932C226.982 853.694 220.855 853.575 216.215 853.575C211.574 853.575 206.518 853.634 201.044 853.753C195.69 853.992 192.716 854.111 192.121 854.111ZM228.708 845.708C233.586 848.211 239.178 849.463 245.484 849.463C255.954 849.463 263.807 844.338 269.042 834.088C274.396 823.838 277.073 810.668 277.073 794.577C277.073 778.607 274.337 765.496 268.864 755.246C263.51 744.877 255.716 739.692 245.484 739.692C239.416 739.692 233.824 741.003 228.708 743.625C228.232 760.55 227.994 777.534 227.994 794.577C227.994 811.502 228.232 828.545 228.708 845.708Z" fill="black"/>
<path d="M327.276 815.316C327.276 811.025 327.276 805.364 327.276 798.332C327.395 791.181 327.454 786.056 327.454 782.957C327.454 776.759 327.216 767.82 326.74 756.14C326.383 746.128 322.635 741.123 315.496 741.123C312.879 741.123 311.57 740.109 311.57 738.083C311.57 736.057 312.879 735.044 315.496 735.044C320.375 735.402 328.346 735.58 339.412 735.58C350.358 735.58 358.33 735.402 363.327 735.044C365.945 735.044 367.253 736.057 367.253 738.083C367.253 740.109 365.945 741.123 363.327 741.123C359.52 741.123 356.723 742.314 354.939 744.698C353.273 747.082 352.321 750.955 352.083 756.319C351.726 765.019 351.548 773.899 351.548 782.957C351.548 792.73 351.786 801.609 352.262 809.595C352.857 820.441 356.01 828.843 361.721 834.803C367.432 840.643 374.095 843.563 381.71 843.563C389.324 843.563 396.106 840.702 402.055 834.982C408.004 829.141 411.336 821.216 412.05 811.204C412.407 806.675 412.585 801.133 412.585 794.577C412.585 777.891 412.407 765.139 412.05 756.319C411.693 746.188 407.945 741.123 400.806 741.123C398.188 741.123 396.88 740.109 396.88 738.083C396.88 736.057 398.188 735.044 400.806 735.044C405.684 735.402 411.217 735.58 417.404 735.58C423.353 735.58 428.826 735.402 433.823 735.044C436.441 735.044 437.75 736.057 437.75 738.083C437.75 740.109 436.441 741.123 433.823 741.123C430.016 741.123 427.22 742.314 425.435 744.698C423.769 747.082 422.818 750.955 422.58 756.319C422.223 765.377 421.925 778.13 421.687 794.577C421.687 796.365 421.628 799.226 421.509 803.159C421.509 807.092 421.509 810.429 421.509 813.171C421.509 817.938 420.735 822.705 419.189 827.473C417.642 832.121 415.262 836.591 412.05 840.881C408.956 845.172 404.494 848.688 398.664 851.429C392.953 854.051 386.35 855.362 378.854 855.362C369.811 855.362 361.899 854.29 355.117 852.144C348.335 849.88 343.219 847.258 339.769 844.278C336.318 841.179 333.582 837.604 331.559 833.551C329.536 829.499 328.287 826.162 327.811 823.54C327.454 820.798 327.276 818.057 327.276 815.316Z" fill="black"/>
<path d="M445.371 853.038C445.728 847.317 445.906 841.596 445.906 835.875C445.906 830.631 445.728 825.506 445.371 820.5C445.371 818.355 446.62 817.282 449.119 817.282C451.142 817.282 452.51 818.355 453.224 820.5C453.581 821.931 454.116 823.599 454.83 825.506C455.663 827.413 457.031 829.797 458.935 832.657C460.839 835.518 462.98 838.14 465.36 840.524C467.74 842.788 470.833 844.755 474.64 846.423C478.448 848.092 482.553 848.926 486.955 848.926C492.428 848.926 497.663 847.139 502.661 843.563C507.777 839.868 510.335 835.339 510.335 829.976C510.335 824.732 508.134 820.381 503.731 816.925C499.448 813.349 493.439 809.774 485.706 806.198L473.57 800.656C465.003 796.723 458.578 791.955 454.295 786.354C450.13 780.633 448.048 774.614 448.048 768.297C448.048 759 451.618 751.015 458.756 744.341C466.014 737.547 475.473 734.15 487.133 734.15C491.536 734.15 496.771 735.104 502.839 737.011C508.907 738.918 512.417 739.871 513.369 739.871C515.035 739.871 516.462 738.918 517.652 737.011C518.842 734.984 520.151 733.971 521.579 733.971C522.53 733.971 523.363 734.269 524.077 734.865C524.91 735.342 525.326 735.878 525.326 736.474C524.97 742.195 524.791 747.916 524.791 753.637C524.791 758.881 524.97 764.006 525.326 769.012C525.326 771.157 524.077 772.23 521.579 772.23C519.556 772.23 518.188 771.157 517.474 769.012C517.117 767.582 516.581 765.973 515.867 764.185C515.273 762.278 514.142 759.835 512.476 756.855C510.811 753.756 508.848 751.075 506.587 748.81C504.445 746.426 501.53 744.341 497.842 742.553C494.153 740.765 490.108 739.871 485.706 739.871C480.827 739.871 476.425 741.48 472.499 744.698C468.691 747.916 466.788 752.028 466.788 757.034C466.788 758.702 466.907 760.192 467.145 761.503C467.502 762.814 468.156 764.066 469.108 765.258C470.179 766.45 471.011 767.403 471.606 768.118C472.201 768.833 473.391 769.668 475.176 770.621C477.08 771.575 478.269 772.23 478.745 772.588C479.34 772.945 480.887 773.66 483.386 774.733C485.884 775.806 487.312 776.402 487.669 776.521L504.267 784.03C513.785 788.201 520.805 793.266 525.326 799.226C529.967 805.185 532.287 811.442 532.287 817.998C532.287 827.89 527.766 836.591 518.723 844.099C509.68 851.608 498.437 855.362 484.992 855.362C480.352 855.362 474.997 854.409 468.929 852.502C462.98 850.595 459.411 849.641 458.221 849.641C456.555 849.641 454.949 850.655 453.402 852.681C451.974 854.588 450.547 855.541 449.119 855.541C448.167 855.541 447.275 855.243 446.442 854.647C445.728 854.171 445.371 853.634 445.371 853.038Z" fill="black"/>
<path d="M569.693 854.111C567.076 854.111 565.767 853.098 565.767 851.072C565.767 849.046 567.076 848.032 569.693 848.032C576.832 848.032 580.58 843.027 580.937 833.015C581.413 815.852 581.651 803.04 581.651 794.577C581.651 776.58 581.413 759.477 580.937 743.268C579.152 741.957 576.118 741.301 571.835 741.301C567.909 741.301 564.458 742.016 561.484 743.447C558.628 744.758 556.427 746.307 554.88 748.095C553.334 749.764 551.965 752.266 550.775 755.604C549.705 758.822 548.991 761.384 548.634 763.291C548.396 765.079 548.039 767.82 547.563 771.515C547.206 773.541 545.778 774.554 543.28 774.554C540.424 774.554 538.996 773.541 538.996 771.515C538.996 769.012 539.056 765.794 539.175 761.861C539.413 757.928 539.532 755.067 539.532 753.28C539.532 748.155 539.353 742.076 538.996 735.044C552.798 735.402 571.062 735.58 593.787 735.58C616.394 735.58 634.598 735.402 648.4 735.044C648.043 742.076 647.864 748.155 647.864 753.28C647.864 755.067 647.924 757.928 648.043 761.861C648.281 765.794 648.4 769.012 648.4 771.515C648.4 773.541 646.972 774.554 644.116 774.554C641.618 774.554 640.19 773.541 639.833 771.515C639.357 767.82 638.941 765.079 638.584 763.291C638.346 761.384 637.632 758.822 636.442 755.604C635.371 752.266 634.062 749.764 632.516 748.095C630.969 746.307 628.708 744.758 625.734 743.447C622.878 742.016 619.487 741.301 615.561 741.301C611.277 741.301 608.243 741.957 606.459 743.268C605.983 759.477 605.745 776.58 605.745 794.577C605.745 803.993 605.983 816.806 606.459 833.015C606.816 843.027 610.563 848.032 617.702 848.032C620.32 848.032 621.629 849.046 621.629 851.072C621.629 853.098 620.32 854.111 617.702 854.111C617.107 854.111 614.133 853.992 608.779 853.753C603.425 853.634 598.427 853.575 593.787 853.575C589.147 853.575 584.09 853.634 578.617 853.753C573.263 853.992 570.288 854.111 569.693 854.111Z" fill="black"/>
<path d="M691.777 790.644C693.085 790.764 694.989 790.823 697.488 790.823C705.935 790.823 712.003 788.38 715.692 783.493C719.499 778.607 721.403 772.766 721.403 765.973C721.403 759.06 719.44 753.101 715.513 748.095C711.587 743.089 706.411 740.586 699.986 740.586C697.012 740.586 694.513 741.182 692.49 742.374C692.015 755.723 691.777 771.813 691.777 790.644ZM655.904 854.111C653.286 854.111 651.977 853.098 651.977 851.072C651.977 849.046 653.286 848.032 655.904 848.032C659.711 848.032 662.448 846.9 664.113 844.636C665.898 842.252 666.909 838.378 667.147 833.015C667.623 816.806 667.861 803.993 667.861 794.577C667.861 786.115 667.623 773.303 667.147 756.14C666.791 746.128 663.043 741.123 655.904 741.123C653.286 741.123 651.977 740.109 651.977 738.083C651.977 736.057 653.286 735.044 655.904 735.044C656.499 735.044 658.7 735.163 662.507 735.402C666.315 735.521 670.538 735.58 675.179 735.58C677.558 735.58 681.485 735.521 686.958 735.402C692.431 735.163 696.774 735.044 699.986 735.044C714.74 735.044 726.341 737.905 734.788 743.625C743.355 749.346 747.638 756.796 747.638 765.973C747.638 772.171 745.437 777.951 741.035 783.314C736.751 788.559 729.91 792.253 720.511 794.399L725.151 801.192C725.627 801.907 733.42 812.515 748.531 833.015C755.789 842.788 763.939 847.675 772.981 847.675C773.695 847.675 774.29 848.032 774.766 848.748C775.361 849.343 775.658 849.999 775.658 850.714C775.658 851.429 775.42 852.144 774.944 852.859C774.469 853.575 773.874 853.932 773.16 853.932C771.375 853.932 768.341 853.873 764.058 853.753C759.774 853.634 756.681 853.575 754.777 853.575C753.468 853.575 751.386 853.634 748.531 853.753C745.675 853.992 743.474 854.111 741.927 854.111C739.072 854.111 736.811 853.694 735.145 852.859C733.48 851.906 731.933 850.297 730.505 848.032C719.678 830.393 709.207 815.256 699.094 802.623C698.975 802.384 698.677 801.967 698.202 801.371C697.726 800.775 697.369 800.358 697.131 800.12C697.012 799.881 696.714 799.524 696.238 799.047C695.762 798.57 695.346 798.272 694.989 798.153C694.632 797.915 694.156 797.736 693.561 797.617C692.966 797.378 692.371 797.259 691.777 797.259C691.896 805.006 692.193 816.925 692.669 833.015C692.788 838.378 693.74 842.252 695.524 844.636C697.309 846.9 700.105 848.032 703.913 848.032C706.53 848.032 707.839 849.046 707.839 851.072C707.839 853.098 706.53 854.111 703.913 854.111C703.318 854.111 700.343 853.992 694.989 853.753C689.635 853.634 684.638 853.575 679.997 853.575C675.357 853.575 670.3 853.634 664.827 853.753C659.473 853.992 656.499 854.111 655.904 854.111Z" fill="black"/>
<path d="M775.329 854.111C772.712 854.111 771.403 853.098 771.403 851.072C771.403 849.046 772.712 848.032 775.329 848.032C779.137 848.032 781.873 846.9 783.539 844.636C785.324 842.252 786.335 838.378 786.573 833.015C787.049 816.806 787.287 803.993 787.287 794.577C787.287 786.115 787.049 773.303 786.573 756.14C786.216 746.128 782.468 741.123 775.329 741.123C772.712 741.123 771.403 740.109 771.403 738.083C771.403 736.057 772.712 735.044 775.329 735.044C775.924 735.044 778.899 735.163 784.253 735.402C789.726 735.521 794.783 735.58 799.423 735.58C804.063 735.58 809.061 735.521 814.415 735.402C819.769 735.163 822.743 735.044 823.338 735.044C825.956 735.044 827.265 736.057 827.265 738.083C827.265 740.109 825.956 741.123 823.338 741.123C819.531 741.123 816.735 742.314 814.95 744.698C813.284 746.963 812.333 750.777 812.095 756.14C811.619 772.349 811.381 785.162 811.381 794.577C811.381 803.04 811.619 815.852 812.095 833.015C812.333 838.378 813.284 842.252 814.95 844.636C816.735 846.9 819.531 848.032 823.338 848.032C825.956 848.032 827.265 849.046 827.265 851.072C827.265 853.098 825.956 854.111 823.338 854.111C822.743 854.111 819.769 853.992 814.415 853.753C809.061 853.634 804.063 853.575 799.423 853.575C794.783 853.575 789.726 853.634 784.253 853.753C778.899 853.992 775.924 854.111 775.329 854.111Z" fill="black"/>
<path d="M835.533 854.111C832.915 854.111 831.606 853.098 831.606 851.072C831.606 849.046 832.915 848.032 835.533 848.032C842.91 848.032 848.323 843.027 851.774 833.015C861.292 804.649 870.454 774.673 879.259 743.089L876.403 735.58C889.134 735.58 898.058 734.567 903.174 732.541C913.406 767.582 924.233 801.073 935.656 833.015C939.106 843.027 944.52 848.032 951.897 848.032C954.514 848.032 955.823 849.046 955.823 851.072C955.823 853.098 954.514 854.111 951.897 854.111C951.302 854.111 948.089 853.992 942.259 853.753C936.548 853.634 931.372 853.575 926.732 853.575C922.092 853.575 917.035 853.634 911.562 853.753C906.208 853.992 903.233 854.111 902.638 854.111C900.021 854.111 898.712 853.098 898.712 851.072C898.712 849.046 900.021 848.032 902.638 848.032C907.636 848.032 910.134 845.649 910.134 840.881C910.134 838.617 909.718 835.995 908.885 833.015C908.409 831.346 907.517 828.426 906.208 824.255C905.018 820.083 904.066 816.865 903.352 814.601C897.046 814.243 890.978 814.064 885.148 814.064C879.199 814.064 873.131 814.243 866.944 814.601C865.278 819.845 863.553 825.983 861.768 833.015C860.935 835.995 860.519 838.617 860.519 840.881C860.519 845.649 863.018 848.032 868.015 848.032C870.632 848.032 871.941 849.046 871.941 851.072C871.941 853.098 870.632 854.111 868.015 854.111C866.349 854.111 863.672 853.992 859.984 853.753C856.295 853.634 853.678 853.575 852.131 853.575C850.584 853.575 847.907 853.634 844.1 853.753C840.292 853.992 837.437 854.111 835.533 854.111ZM868.729 807.628C874.321 807.986 879.734 808.165 884.97 808.165C890.205 808.165 895.678 807.986 901.389 807.628C899.366 800.835 893.834 784.327 884.791 758.107C879.08 774.673 873.726 791.181 868.729 807.628Z" fill="black"/>
<path d="M962.478 854.111C959.86 854.111 958.552 853.098 958.552 851.072C958.552 849.046 959.86 848.032 962.478 848.032C969.617 848.032 973.365 843.027 973.722 833.015C974.198 816.806 974.436 803.993 974.436 794.577C974.436 786.115 974.198 773.303 973.722 756.14C973.365 746.128 969.617 741.123 962.478 741.123C959.86 741.123 958.552 740.109 958.552 738.083C958.552 736.057 959.86 735.044 962.478 735.044C963.073 735.044 966.047 735.163 971.402 735.402C976.875 735.521 981.931 735.58 986.572 735.58C991.212 735.58 996.209 735.521 1001.56 735.402C1006.92 735.163 1009.89 735.044 1010.49 735.044C1013.1 735.044 1014.41 736.057 1014.41 738.083C1014.41 740.109 1013.1 741.123 1010.49 741.123C1003.35 741.123 999.6 746.128 999.243 756.14C998.767 772.349 998.529 785.162 998.529 794.577C998.529 811.383 998.767 827.89 999.243 844.099C1003.41 846.602 1009.12 847.854 1016.38 847.854C1020.06 847.854 1023.28 847.496 1026.01 846.781C1028.87 845.947 1031.19 844.636 1032.97 842.848C1034.76 840.941 1036.19 839.272 1037.26 837.842C1038.45 836.293 1039.4 834.028 1040.11 831.048C1040.83 828.069 1041.3 825.923 1041.54 824.612C1041.78 823.182 1042.08 820.858 1042.43 817.64C1042.79 815.614 1044.22 814.601 1046.72 814.601C1049.57 814.601 1051 815.614 1051 817.64C1051 820.143 1050.88 823.361 1050.64 827.294C1050.52 831.227 1050.46 834.088 1050.46 835.875C1050.46 841 1050.64 847.079 1051 854.111C1041.6 853.753 1026.73 853.575 1006.38 853.575C986.512 853.575 971.878 853.753 962.478 854.111Z" fill="black"/>
<path d="M237.464 232.436C242.938 232.935 250.901 233.184 261.351 233.184C296.685 233.184 322.065 222.97 337.492 202.541C353.417 182.113 361.379 157.698 361.379 129.297C361.379 100.399 353.168 75.4858 336.745 54.5591C320.323 33.6323 298.675 23.1689 271.802 23.1689C259.361 23.1689 248.91 25.6602 240.45 30.6428C238.459 86.4474 237.464 153.712 237.464 232.436ZM87.4225 497.758C76.4742 497.758 71 493.523 71 485.052C71 476.582 76.4742 472.347 87.4225 472.347C103.347 472.347 114.793 467.613 121.76 458.146C129.225 448.181 133.455 431.988 134.45 409.566C136.441 341.804 137.436 288.241 137.436 248.879C137.436 213.503 136.441 159.94 134.45 88.1914C132.958 46.3379 117.282 25.4111 87.4225 25.4111C76.4742 25.4111 71 21.1759 71 12.7056C71 4.23519 76.4742 0 87.4225 0C89.9107 0 99.1173 0.498264 115.042 1.49479C130.967 1.99304 148.634 2.24217 168.042 2.24217C177.995 2.24217 194.417 1.99304 217.309 1.49479C240.201 0.498264 258.365 0 271.802 0C333.511 0 382.032 11.9582 417.365 35.8745C453.196 59.7907 471.111 90.9318 471.111 129.297C471.111 155.207 461.905 179.372 443.491 201.794C425.576 223.717 396.961 239.163 357.647 248.132L377.055 276.532C379.046 279.522 411.642 323.866 474.844 409.566C505.2 450.423 512.53 470.852 550.352 470.852C553.338 470.852 555.826 472.347 557.816 475.336C560.305 477.828 561.549 480.568 561.549 483.558C561.549 486.547 560.554 489.537 558.563 492.526C556.572 495.516 554.084 497.01 551.098 497.01C543.633 497.01 557.702 496.761 539.787 496.263C521.871 495.765 508.933 495.516 500.97 495.516C495.496 495.516 486.787 495.765 474.844 496.263C462.9 497.26 453.693 497.758 447.224 497.758C435.28 497.758 425.825 496.014 418.858 492.526C411.891 488.54 405.421 481.814 399.449 472.347C354.163 398.605 310.37 335.326 268.07 282.511C267.572 281.515 266.328 279.771 264.337 277.279C262.347 274.788 260.854 273.044 259.858 272.048C259.361 271.051 258.117 269.557 256.126 267.564C254.135 265.57 252.394 264.325 250.901 263.827C249.408 262.83 247.417 262.083 244.929 261.584C242.441 260.588 239.952 260.09 237.464 260.09C237.962 292.476 239.206 342.302 241.197 409.566C241.694 431.988 245.675 448.181 253.14 458.146C260.605 467.613 272.3 472.347 288.225 472.347C299.173 472.347 304.647 476.582 304.647 485.052C304.647 493.523 299.173 497.758 288.225 497.758C285.736 497.758 273.295 497.26 250.901 496.263C228.506 495.765 207.605 495.516 188.197 495.516C168.788 495.516 147.638 495.765 124.746 496.263C102.352 497.26 89.9107 497.758 87.4225 497.758Z" fill="black"/>
<path d="M511.713 701.046C500.765 701.046 495.291 696.811 495.291 688.341C495.291 679.87 500.765 675.635 511.713 675.635C527.638 675.635 539.084 670.902 546.051 661.435C553.516 651.47 557.746 635.277 558.741 612.855C560.732 545.092 561.727 491.53 561.727 452.167C561.727 416.791 560.732 363.229 558.741 291.48C557.248 249.626 541.572 228.7 511.713 228.7C500.765 228.7 495.291 224.464 495.291 215.994C495.291 207.524 500.765 203.288 511.713 203.288C514.201 203.288 526.643 203.787 549.037 204.783C571.929 205.282 593.079 205.531 612.487 205.531C631.896 205.531 657.525 205.032 689.374 204.036C721.224 203.039 738.393 202.541 740.881 202.541C819.51 202.541 878.979 225.461 919.289 271.3C960.096 316.642 980.5 376.931 980.5 452.167C980.5 527.404 960.096 587.942 919.289 633.782C878.979 679.621 819.51 702.541 740.881 702.541C738.393 702.541 721.224 701.794 689.374 700.299C657.525 699.302 631.896 698.804 612.487 698.804C593.079 698.804 571.929 699.053 549.037 699.552C526.643 700.548 514.201 701.046 511.713 701.046ZM664.741 665.919C685.144 676.383 708.534 681.614 734.909 681.614C778.703 681.614 811.548 660.189 833.444 617.339C855.839 574.489 867.036 519.432 867.036 452.167C867.036 385.401 855.59 330.593 832.698 287.743C810.304 244.395 777.707 222.72 734.909 222.72C709.529 222.72 686.14 228.201 664.741 239.163C662.75 309.915 661.755 380.917 661.755 452.167C661.755 522.92 662.75 594.17 664.741 665.919Z" fill="black"/>
</svg>
