<svg width="10" height="14" viewBox="0 0 10 14" fill="none" xmlns="http://www.w3.org/2000/svg">
<path d="M1.28004 0C1.08243 0 0.938721 0.139825 0.938721 0.332085V13.6679C0.938721 13.8602 1.08243 14 1.28004 14H9.5974C9.79501 14 9.93872 13.8602 9.93872 13.6679V0.332085C9.93872 0.139825 9.79501 0 9.5974 0L1.28004 0ZM2.73513 1.74782H8.12435V10.4869H2.73513V1.74782ZM5.42974 11.3608C5.93273 11.3608 6.32794 11.7453 6.32794 12.2347C6.32794 12.7241 5.93273 13.1086 5.42974 13.1086C4.92674 13.1086 4.53153 12.7241 4.53153 12.2347C4.53153 11.7453 4.92674 11.3608 5.42974 11.3608Z" fill="white"/>
</svg>
